<?xml version="1.0" encoding="iso-8859-1"?>
<!-- Uploaded to: SVG Repo, www.svgrepo.com, Generator: SVG Repo Mixer Tools -->
<svg height="800px" width="800px" version="1.1" id="Layer_1" xmlns="http://www.w3.org/2000/svg" xmlns:xlink="http://www.w3.org/1999/xlink" 
	 viewBox="0 0 512 512" xml:space="preserve">
<g>
	<circle style="fill:#A6DAE8;" cx="256" cy="256" r="256"/>
	<path style="fill:#9AC2D9;" d="M493.297,352.061l-0.553-0.276L289.065,135.808l-96.123-48.061l-96.123,48.061V259.2
		l120.909,119.711l8.54,24.94l90.788,100.772C397.348,484.961,462.74,427.459,493.297,352.061z"/>
	<polygon style="fill:#FF763B;" points="289.065,135.808 192.942,183.875 96.819,135.808 192.942,87.747 	"/>
	<polygon style="fill:#FC611F;" points="192.942,306.278 96.819,259.2 96.819,135.808 192.942,183.875 	"/>
	<polygon style="fill:#E64500;" points="192.942,306.278 289.065,259.2 289.065,135.808 192.942,183.875 	"/>
	<path style="fill:#FFFFFF;" d="M153.882,221.379c0,6.733-4.029,10.706-9.001,8.873c-4.972-1.833-9.001-8.781-9.001-15.514
		c0-6.733,4.029-10.706,9.001-8.873C149.852,207.703,153.882,214.646,153.882,221.379z"/>
	<path style="fill:#FFFFFF;" d="M234.813,222.74c0,6.733,4.029,10.706,9.001,8.873c4.972-1.833,9.001-8.781,9.001-15.514
		c0-6.733-4.029-10.706-9.001-8.873C238.843,209.065,234.813,216.008,234.813,222.74z"/>
	<path style="fill:#FFFFFF;" d="M205.553,205.768c0,6.733,4.029,10.706,9.001,8.873s9.001-8.781,9.001-15.514
		s-4.029-10.706-9.001-8.873S205.553,199.035,205.553,205.768z"/>
	<path style="fill:#FFFFFF;" d="M205.553,272.256c0,6.733,4.029,10.706,9.001,8.873c4.972-1.833,9.001-8.781,9.001-15.514
		s-4.029-10.706-9.001-8.873S205.553,265.523,205.553,272.256z"/>
	<path style="fill:#FFFFFF;" d="M260.465,178.693c0,6.733,4.029,10.706,9.001,8.873s9.001-8.781,9.001-15.514
		c0-6.733-4.029-10.706-9.001-8.873C264.499,165.012,260.465,171.955,260.465,178.693z"/>
	<path style="fill:#FFFFFF;" d="M260.465,245.181c0,6.733,4.029,10.706,9.001,8.873c4.972-1.833,9.001-8.781,9.001-15.514
		s-4.029-10.706-9.001-8.873S260.465,238.449,260.465,245.181z"/>
	<path style="fill:#FFFFFF;" d="M123.571,176.292c0,6.733-4.029,10.706-9.001,8.873c-4.972-1.833-9.001-8.781-9.001-15.514
		c0-6.733,4.029-10.706,9.001-8.873C119.542,162.611,123.571,169.559,123.571,176.292z"/>
	<path style="fill:#FFFFFF;" d="M180.122,270.459c0,6.733-4.029,10.706-9.001,8.873c-4.972-1.833-9.001-8.781-9.001-15.514
		c0-6.733,4.029-10.706,9.001-8.873C176.092,256.783,180.122,263.726,180.122,270.459z"/>
	<ellipse style="fill:#FFFFFF;" cx="192.942" cy="135.808" rx="12.611" ry="8.53"/>
	<polygon style="fill:#FF763B;" points="414.776,351.278 312.822,317.292 278.835,215.337 380.79,249.324 	"/>
	<polygon style="fill:#FC611F;" points="226.263,403.845 191.585,302.587 278.835,215.337 312.822,317.292 	"/>
	<polygon style="fill:#E64500;" points="226.263,403.845 327.526,438.528 414.776,351.278 312.822,317.292 	"/>
	<path style="fill:#FFFFFF;" d="M306.253,341.693c-4.762,4.762-4.721,10.419,0.092,12.641c4.813,2.217,12.575,0.159,17.336-4.603
		c4.762-4.762,4.721-10.419-0.092-12.641S311.014,336.932,306.253,341.693z"/>
	<path style="fill:#FFFFFF;" d="M259.236,388.705c-4.762,4.762-4.721,10.419,0.092,12.641c4.813,2.217,12.575,0.159,17.336-4.603
		c4.762-4.762,4.721-10.419-0.092-12.641C271.759,381.88,263.997,383.944,259.236,388.705z"/>
	<path style="fill:#FFFFFF;" d="M336.599,351.862c-4.762,4.762-4.721,10.419,0.092,12.641c4.813,2.222,12.575,0.159,17.336-4.603
		s4.721-10.419-0.092-12.641C349.123,345.037,341.361,347.1,336.599,351.862z"/>
	<path style="fill:#FFFFFF;" d="M289.582,398.879c-4.762,4.762-4.721,10.419,0.092,12.641c4.813,2.217,12.575,0.159,17.336-4.603
		c4.762-4.762,4.721-10.419-0.092-12.641S294.344,394.117,289.582,398.879z"/>
	<path style="fill:#FFFFFF;" d="M364.232,361.375c-4.762,4.762-4.721,10.419,0.092,12.641c4.813,2.217,12.575,0.159,17.336-4.603
		s4.721-10.419-0.092-12.641C376.755,354.555,368.993,356.613,364.232,361.375z"/>
	<path style="fill:#FFFFFF;" d="M317.215,408.392c-4.762,4.762-4.721,10.419,0.092,12.641c4.813,2.217,12.575,0.159,17.336-4.603
		c4.762-4.762,4.721-10.419-0.092-12.641C329.738,401.567,321.976,403.63,317.215,408.392z"/>
	<path style="fill:#FFFFFF;" d="M269.128,262.881c-4.762,4.762-10.419,4.721-12.641-0.092c-2.217-4.813-0.159-12.575,4.603-17.336
		c4.762-4.762,10.419-4.721,12.641,0.092C275.953,250.358,273.889,258.12,269.128,262.881z"/>
	<path style="fill:#FFFFFF;" d="M242.529,369.454c-4.762,4.762-10.419,4.721-12.641-0.092c-2.217-4.813-0.159-12.575,4.603-17.336
		s10.419-4.721,12.641,0.092S247.291,364.692,242.529,369.454z"/>
	
		<ellipse transform="matrix(0.7071 -0.7071 0.7071 0.7071 -98.7293 328.1921)" style="fill:#FFFFFF;" cx="346.798" cy="283.273" rx="8.53" ry="12.61"/>
</g>
</svg>